# xmcd
#
# Track frame offsets:
#	150
#	16433
#	36377
#	51504
#	73994
#	94338
#	113406
#	135272
#	158228
#	179145
#	202205
#	218325
#
# Disc length: 3191 seconds
#
# Revision: 1
# Processed by: cddbd v1.5.1PL2 Copyright (c) Steve Scherf et al.
# Submitted via: audiograbber 1.83.01
#
DISCID=b30c750c
DTITLE=Johnny Adams - The Great Johnny Adams Blues Album
DYEAR=2005
DGENRE=Blues
TTITLE0=Not Trustworthy (A Lyin' Woman)
TTITLE1=My Heart Is Hangin' Heavy
TTITLE2=Laughin' And Clownin'
TTITLE3=Danger Zone
TTITLE4=Imitation Of Love
TTITLE5=Garbage Man
TTITLE6=Roadblock
TTITLE7=Scarred Knees
TTITLE8=Fortune Teller
TTITLE9=Room With A View
TTITLE10=My Baby's Quit Me
TTITLE11=This Time I'm Gone For Good
EXTD=
EXTT0=
EXTT1=
EXTT2=
EXTT3=
EXTT4=
EXTT5=
EXTT6=
EXTT7=
EXTT8=
EXTT9=
EXTT10=
EXTT11=
PLAYORDER=
